<?xml version="1.0" encoding="UTF-8"?>
<svg id="Layer_2" data-name="Layer 2" xmlns="http://www.w3.org/2000/svg" viewBox="0 0 964.2 152.05">
  <defs>
    <style>
      .cls-1 {
        fill: #fff;
        stroke-width: 0px;
      }
    </style>
  </defs>
  <g id="Layer_1-2" data-name="Layer 1">
    <g>
      <path class="cls-1" d="M957.36.43h-22.37c-2.2,0-4.26,1.05-5.55,2.83l-37.91,52.11c-3.69,5.07-11.25,5.07-14.93,0l-37.91-52.11c-1.29-1.78-3.36-2.83-5.55-2.83h-22.59c-3.77,0-6.83,3.06-6.83,6.83v137.95c0,3.78,3.06,6.84,6.84,6.84h14.92c3.78,0,6.84-3.06,6.84-6.84v-80.21c0-7.33,9.37-10.39,13.69-4.47l30.63,41.89,1.15,1.57s.03.04.05.06c1.3,1.72,3.36,2.83,5.68,2.83,2.12,0,4.02-.93,5.32-2.4l.71-.94,32.45-43.32c4.37-5.83,13.64-2.74,13.64,4.54v80.44c0,3.78,3.06,6.84,6.84,6.84h14.92c3.77,0,6.84-3.06,6.84-6.84V7.27c0-3.78-3.06-6.84-6.84-6.84Z"/>
      <path class="cls-1" d="M309.56,142.19L247.71,4.33c-1.12-2.5-3.61-4.11-6.34-4.11h-22.22c-2.73,0-5.21,1.6-6.34,4.11l-61.84,137.86c-2.03,4.53,1.3,9.64,6.25,9.64h16.03c2.66,0,5.08-1.55,6.17-3.97l6.66-14.65c2.76-6.07,8.81-9.97,15.49-9.97h57.38c6.68,0,12.73,3.9,15.49,9.97l6.66,14.65c1.09,2.42,3.51,3.97,6.17,3.97h16.03c4.96,0,8.28-5.11,6.25-9.64ZM247.98,96.6h-35.44c-4.92,0-8.25-5.04-6.27-9.56l17.72-40.62c1.19-2.74,3.73-4.11,6.27-4.11s5.08,1.36,6.27,4.11l17.72,40.62c1.98,4.51-1.35,9.56-6.27,9.56Z"/>
      <path class="cls-1" d="M792.37,142.19L730.52,4.33c-1.12-2.5-3.61-4.11-6.34-4.11h-22.22c-2.73,0-5.21,1.6-6.34,4.11l-61.84,137.86c-2.03,4.53,1.3,9.64,6.25,9.64h16.03c2.66,0,5.08-1.55,6.17-3.97l6.66-14.65c2.76-6.07,8.81-9.97,15.49-9.97h57.38c6.68,0,12.73,3.9,15.49,9.97l6.66,14.65c1.09,2.42,3.51,3.97,6.17,3.97h16.03c4.96,0,8.28-5.11,6.25-9.64ZM730.8,96.6h-35.44c-4.92,0-8.25-5.04-6.27-9.56l17.72-40.62c1.19-2.74,3.73-4.11,6.27-4.11s5.08,1.36,6.27,4.11l17.72,40.62c1.98,4.51-1.35,9.56-6.27,9.56Z"/>
      <path class="cls-1" d="M349.07,7.21v137.64c0,3.87-3.13,6.99-6.98,6.99h-14.41c-3.85,0-6.99-3.12-6.99-6.99V7.21c0-3.87,3.14-6.99,6.99-6.99h14.41c3.85,0,6.98,3.12,6.98,6.99Z"/>
      <path class="cls-1" d="M484.44,7.21v12.03c0,3.85-3.12,6.97-6.97,6.97h-30.87c-5.66,0-10.24,4.58-10.24,10.24v108.41c0,3.87-3.12,6.99-6.99,6.99h-14.62c-3.87,0-6.98-3.12-6.98-6.99V36.44c0-5.66-4.58-10.24-10.24-10.24h-30.87c-3.85,0-6.97-3.12-6.97-6.97V7.21c0-3.87,3.12-6.99,6.97-6.99h110.81c3.85,0,6.97,3.12,6.97,6.99Z"/>
      <path class="cls-1" d="M620.67,140.08l-29.73-33.51c-3.29-3.7-1.96-9.59,2.64-11.41,20.96-8.26,28.2-26.56,28.2-44.69,0-26.2-18.84-50.04-54.57-50.24-21.74,0-43.46-.19-65.2-.22-3.83,0-6.93,3.1-6.93,6.93v137.91c0,3.87,3.13,6.99,6.98,6.99h14.63c3.85,0,6.97-3.12,6.97-6.99v-35.86c0-4.33,3.51-7.84,7.85-7.84h12.71c4.41,0,8.62,1.91,11.52,5.23l37.55,43.09c1.31,1.5,3.22,2.37,5.23,2.37h16.85c6.1,0,9.34-7.19,5.3-11.76ZM567.21,75.37h-36.78c-3.73,0-6.76-3.03-6.76-6.76v-34.99c0-3.73,3.03-6.76,6.76-6.76h36.78c17.97,0,25.98,12.13,25.98,24.26s-7.79,24.26-25.98,24.26Z"/>
      <path class="cls-1" d="M349.07,7.21v137.64c0,3.87-3.13,6.99-6.98,6.99h-14.41c-3.85,0-6.99-3.12-6.99-6.99V7.21c0-3.87,3.14-6.99,6.99-6.99h14.41c3.85,0,6.98,3.12,6.98,6.99Z"/>
      <g>
        <path class="cls-1" d="M132.26.22h-14.11c-3.82,0-6.91,3.09-6.91,6.91v57.37c0,13.45-16.99,19.32-25.29,8.74L32.85,5.62C30.17,2.21,26.08.22,21.74.22H7.39C3.31.22,0,3.53,0,7.61v69.24l8.18-2.97c-.15.28-.29.56-.39.83h0c-.11.29-.2.57-.27.85l-7.52,2.3v3.92h0s8-3,8-3c.26.43.6.81,1.01,1.14h0c.1.08.2.16.31.23,0,0,0,0,0,0-3.13.97-6.24,1.93-9.33,2.89v4.08l14.76-5.56s.08,0,.12,0c.28.01.56.02.85.02,1.05,0,2.19-.07,3.43-.19,1.47-.15,3.03-.39,4.67-.71.06,0,.12-.02.18-.03l-.11.03L0,88.19v56.46c0,3.87,3.14,7.01,7.01,7.01h14.6c3.87,0,7.01-3.14,7.01-7.01v-67.15c-10.07,2.73-17.93,2.85-19.07-.11-1.45-3.78,8.55-11.15,22.42-16.58.2-.08.4-.16.59-.23.61-.23,1.21-.46,1.81-.68h0c13.44-4.88,25.13-5.93,26.54-2.27,1.12,2.92-4.6,7.99-13.66,12.65l49.69,63.28,9.94,12.66c2.7,3.43,6.82,5.44,11.18,5.44h14.79c3.87,0,7-3.13,7-7V7.81c0-4.19-3.4-7.59-7.59-7.59ZM31.8,58.62c-3.64,1.4-7.09,2.96-10.2,4.59-.08-.14-.14-.29-.2-.44-1.32-3.45,2.31-8.05,8.12-10.29,5.81-2.24,11.59-1.25,12.92,2.19.06.16.11.31.15.47-3.44.88-7.1,2.05-10.79,3.46Z"/>
        <path class="cls-1" d="M37.21,71.67c-4.19,1.61-7.35,3.53-7.05,4.29.28.73,3.6.13,7.55-1.33.09-.04.19-.07.28-.11.09-.04.19-.07.28-.11.11-.04.22-.09.34-.13.01,0,.02,0,.04-.01.12-.05.25-.1.37-.15,0,0,0,0,.01,0,3.81-1.55,6.58-3.28,6.3-4-.29-.76-3.93-.07-8.12,1.54Z"/>
        <path class="cls-1" d="M31.72,55.35s-.02-.05-.03-.07c-.01-.03-.02-.06-.04-.09,0,0,0,0,0,0-.01-.03-.03-.06-.04-.09,0,0,0,0,0,0-.42-.98-.94-1.72-1.2-1.69-.28.03-.15.93.28,2.01.43,1.07,1.01,1.92,1.28,1.89.27-.03.16-.85-.22-1.86,0-.02-.02-.05-.03-.07Z"/>
        <path class="cls-1" d="M23.59,58.43c-.24-.06-.47.51-.51,1.26-.04.75.11,1.41.35,1.46.23.05.45-.46.51-1.16,0-.02,0-.03,0-.05,0-.02,0-.03,0-.05,0-.02,0-.04,0-.06,0,0,0,0,0,0,0-.02,0-.04,0-.07,0,0,0,0,0,0,.02-.69-.13-1.28-.36-1.33Z"/>
        <path class="cls-1" d="M39.58,53.8s-.02-.03-.03-.04c-.01-.01-.03-.03-.04-.04,0,0,0,0,0,0-.01-.02-.03-.03-.05-.05,0,0,0,0,0,0-.49-.5-1.01-.79-1.2-.67-.21.13.04.69.55,1.25.51.56,1.09.9,1.3.77.2-.13-.02-.64-.48-1.17-.01-.01-.02-.03-.03-.04Z"/>
      </g>
    </g>
  </g>
</svg>